<?xml version="1.0" encoding="iso-8859-1"?>
<!-- Generator: Adobe Illustrator 16.0.0, SVG Export Plug-In . SVG Version: 6.00 Build 0)  -->
<!DOCTYPE svg PUBLIC "-//W3C//DTD SVG 1.1//EN" "http://www.w3.org/Graphics/SVG/1.1/DTD/svg11.dtd">
<svg version="1.1" xmlns="http://www.w3.org/2000/svg" xmlns:xlink="http://www.w3.org/1999/xlink" x="0px" y="0px" width="20px"
	 height="20px" viewBox="0 0 20 20" style="enable-background:new 0 0 20 20;" xml:space="preserve">
<g id="icon-instagram">
	<g>
		<g>
			<path d="M17.5,17.5h-15v-15h15V17.5z M3.587,16.413h12.826V3.587H3.587V16.413z"/>
		</g>
		<g>
			<path d="M9.999,13.556c-1.96,0-3.555-1.595-3.555-3.556s1.595-3.556,3.555-3.556c1.961,0,3.556,1.595,3.556,3.556
				S11.96,13.556,9.999,13.556z M9.999,7.531c-1.361,0-2.468,1.107-2.468,2.469s1.107,2.469,2.468,2.469
				c1.361,0,2.469-1.107,2.469-2.469S11.36,7.531,9.999,7.531z"/>
		</g>
		<path d="M15.131,5.411c0-0.493-0.399-0.893-0.893-0.893c-0.492,0-0.893,0.399-0.893,0.893s0.4,0.893,0.893,0.893
			C14.731,6.304,15.131,5.904,15.131,5.411"/>
	</g>
</g>
<g id="Layer_1">
</g>
</svg>
